# Blender 4.5.4 LTS
# www.blender.org
mtllib rock_02.mtl
o rock
v -0.816272 -0.974855 0.575375
v -0.000000 1.890657 0.000000
v -0.816272 -0.974855 -0.709690
v 0.468793 -0.974855 0.575375
v 0.468793 -0.974855 -0.709690
v -1.000000 0.717346 1.000000
v -1.000000 0.717346 -1.000000
v 1.000000 0.717346 -1.000000
v 1.000000 0.717346 1.000000
vn -0.7611 0.6487 -0.0000
vn -0.0000 0.6487 -0.7611
vn 0.7611 0.6487 -0.0000
vn -0.0000 0.6487 0.7611
vn -0.0000 -1.0000 -0.0000
vn -0.0000 -0.2434 0.9699
vn 0.9541 -0.2995 -0.0000
vn -0.0000 -0.1691 -0.9856
vn -0.9942 -0.1079 -0.0000
vt 0.373260 0.577418
vt 0.659187 0.449754
vt 0.659187 0.762888
vt -0.000000 0.211097
vt 0.113064 -0.000000
vt 0.325585 0.110363
vt 0.659187 0.589478
vt 0.829594 0.449754
vt 1.000000 0.589478
vt 0.325585 0.152453
vt 0.495991 -0.000000
vt 0.666398 0.152453
vt 0.218983 0.700329
vt 0.000000 0.700329
vt 0.000000 0.481346
vt 0.218983 0.481346
vt 0.416106 0.449754
vt 0.635089 0.449754
vt 0.708658 0.891714
vt 0.927641 0.891714
vt 0.116386 0.481346
vt 0.325585 0.416621
vt 0.325585 0.783880
vt 0.509303 0.903050
s 0
f 6/1/1 2/2/1 7/3/1
f 7/4/2 2/5/2 8/6/2
f 8/7/3 2/8/3 9/9/3
f 9/10/4 2/11/4 6/12/4
f 3/13/5 5/14/5 4/15/5 1/16/5
f 4/17/6 9/10/6 6/12/6 1/18/6
f 5/19/7 8/7/7 9/9/7 4/20/7
f 3/21/8 7/4/8 8/6/8 5/22/8
f 1/23/9 6/1/9 7/3/9 3/24/9
