# Blender 4.5.4 LTS
# www.blender.org
mtllib station.mtl
o Station
v -1.470912 -5.493430 1.470912
v -1.470912 6.142610 1.470912
v -1.470912 -5.493430 -1.470912
v -1.470912 6.142610 -1.470912
v 1.470912 -5.493430 1.470912
v 1.470912 6.142610 1.470912
v 1.470912 -5.493430 -1.470912
v 1.470912 6.142610 -1.470912
v -3.378718 6.142610 3.378718
v -3.378718 6.142610 -3.378718
v 3.378718 6.142610 3.378718
v 3.378718 6.142610 -3.378718
v 0.000000 15.309399 0.000000
v -5.402658 -5.493430 5.402658
v -5.402658 -5.493430 -5.402658
v 5.402658 -5.493430 5.402658
v 5.402658 -5.493430 -5.402658
v -3.149895 -11.456814 3.149895
v -3.149895 -11.456814 -3.149895
v 3.149895 -11.456814 3.149895
v 3.149895 -11.456814 -3.149895
v -3.723664 -1.181117 3.723664
v -3.723664 -1.181117 -3.723664
v 3.723664 -1.181117 3.723664
v 3.723664 -1.181117 -3.723664
v -3.723664 2.514946 -3.723664
v -3.723664 2.514946 3.723664
v 3.723664 2.514946 -3.723664
v 3.723664 2.514946 3.723664
vn -1.0000 -0.0000 -0.0000
vn -0.0000 -0.0000 -1.0000
vn 1.0000 -0.0000 -0.0000
vn -0.0000 -0.0000 1.0000
vn -0.0000 -1.0000 -0.0000
vn -0.0000 0.3458 0.9383
vn -0.0000 0.3458 -0.9383
vn 0.9383 0.3458 -0.0000
vn -0.9383 0.3458 -0.0000
vn -0.0000 1.0000 -0.0000
vn 0.9355 -0.3534 -0.0000
vn -0.9355 -0.3534 -0.0000
vn -0.0000 -0.3534 0.9355
vn -0.0000 -0.3534 -0.9355
vt 0.408014 0.910735
vt 0.408014 0.591986
vt 0.488600 0.591986
vt 0.488600 0.910735
vt 0.836673 0.799850
vt 0.836673 0.481102
vt 0.917260 0.481102
vt 0.917260 0.799850
vt 0.849210 0.481102
vt 0.849210 0.162353
vt 0.929796 0.162353
vt 0.929796 0.481102
vt 0.664101 0.972422
vt 0.664101 0.653674
vt 0.744688 0.653674
vt 0.744688 0.972422
vt 0.204007 0.591986
vt 0.204007 0.795993
vt -0.000000 0.795993
vt 0.000000 0.591986
vt 0.664101 0.481102
vt 0.664101 0.295993
vt 0.849210 0.295993
vt 0.633141 0.267453
vt 0.459470 0.203394
vt 0.633141 0.000000
vt 0.664101 0.563446
vt 0.490430 0.499388
vt 0.664101 0.295993
vt 0.806812 0.267453
vt 0.633141 0.203394
vt 0.806812 0.000000
vt 0.664101 0.830898
vt 0.490430 0.766840
vt 0.664101 0.563446
vt 0.295993 0.295993
vt 0.000000 0.295993
vt 0.000000 0.000000
vt 0.295993 0.000000
vt 0.836673 0.653674
vt 0.664101 0.653674
vt 0.664101 0.481102
vt 0.295993 0.295993
vt 0.295993 -0.000000
vt 0.459470 0.061711
vt 0.459470 0.234283
vt 0.000000 0.591986
vt 0.000000 0.295993
vt 0.163477 0.357704
vt 0.163477 0.530276
vt 0.163477 0.591986
vt 0.163477 0.295993
vt 0.326953 0.357704
vt 0.326953 0.530276
vt 0.326954 0.591986
vt 0.326954 0.295993
vt 0.490430 0.357704
vt 0.490430 0.530276
vt 0.408014 0.795993
vt 0.204007 0.795993
vt 0.204007 0.591986
vt 0.408014 0.591986
vt 0.101247 0.795993
vt 0.101247 1.000000
vt -0.000000 1.000000
vt 0.000000 0.795993
vt 0.202494 0.795993
vt 0.202494 1.000000
vt 0.101247 1.000000
vt 0.101247 0.795993
vt 0.303741 0.795993
vt 0.303741 1.000000
vt 0.404989 0.795993
vt 0.404989 1.000000
vt 0.303741 0.795993
s 0
f 1/1/1 2/2/1 4/3/1 3/4/1
f 3/5/2 4/6/2 8/7/2 7/8/2
f 7/9/3 8/10/3 6/11/3 5/12/3
f 5/13/4 6/14/4 2/15/4 1/16/4
f 23/17/5 25/18/5 24/19/5 22/20/5
f 12/9/5 11/21/5 9/22/5 10/23/5
f 9/24/6 11/25/6 13/26/6
f 12/27/7 10/28/7 13/29/7
f 11/30/8 12/31/8 13/32/8
f 10/33/9 9/34/9 13/35/9
f 15/36/10 14/37/10 16/38/10 17/39/10
f 19/6/5 21/40/5 20/41/5 18/42/5
f 17/43/11 16/44/11 20/45/11 21/46/11
f 14/47/12 15/48/12 19/49/12 18/50/12
f 16/51/13 14/52/13 18/53/13 20/54/13
f 15/55/14 17/56/14 21/57/14 19/58/14
f 26/59/10 27/60/10 29/61/10 28/62/10
f 22/63/4 24/64/4 29/65/4 27/66/4
f 25/67/2 23/68/2 26/69/2 28/70/2
f 24/71/3 25/72/3 28/68/3 29/67/3
f 23/73/1 22/74/1 27/72/1 26/75/1
