# Blender 4.5.4 LTS
# www.blender.org
mtllib Emularns.mtl
o Emularns
v -0.504634 -0.455397 4.030640
v -0.307458 0.455397 4.030640
v -1.292236 -0.699404 0.787327
v -0.787319 0.699404 0.787327
v 0.504634 -0.455397 4.030640
v 0.307458 0.455397 4.030640
v 1.292236 -0.699404 0.787327
v 0.787319 0.699404 0.787327
v 0.000000 0.000000 5.210562
v 1.292236 -0.699404 -1.953686
v -0.787319 0.699404 -1.953686
v -1.292236 -0.699404 -1.953686
v 0.787319 0.699404 -1.953686
v 0.816409 -0.441870 -2.969058
v -0.497413 0.441870 -2.969058
v -0.816409 -0.441870 -2.969058
v 0.497413 0.441870 -2.969058
v -0.520418 -0.685003 1.754918
v -0.317074 0.685003 1.754918
v 0.520418 -0.685003 1.754918
v 0.317074 0.685003 1.754918
v -1.147439 -0.281320 -0.068632
v -0.944279 0.262587 -0.583179
v -1.147439 -0.281320 -1.097727
v -2.432852 0.387267 -0.583179
v -1.772137 -0.281320 -0.068632
v -1.772137 -0.281320 -1.097727
v -2.432852 0.387267 -3.973055
v -1.772137 -0.286003 -3.973054
v -1.772142 -0.304737 0.311761
v -2.432851 0.387267 0.311761
v -3.093561 -0.286004 -3.973055
v -2.432851 -0.061580 1.589539
v 0.944279 0.262587 -0.583179
v -3.093561 -0.286004 0.311761
v 1.147439 -0.281320 -0.068632
v 1.147439 -0.281320 -1.097727
v 2.432852 0.387267 -0.583179
v 1.772137 -0.281320 -0.068632
v 1.772137 -0.281320 -1.097727
v 2.432852 0.387267 -3.973055
v 1.772137 -0.286003 -3.973054
v 1.772142 -0.304737 0.311761
v 2.432851 0.387267 0.311761
v 3.093561 -0.286004 -3.973055
v 2.432851 -0.061580 1.589539
v 3.093561 -0.286004 0.311761
vn -0.8227 0.2105 0.5281
vn -0.0000 1.0000 -0.0000
vn 0.9849 0.1730 0.0055
vn -0.0000 0.9329 0.3601
vn -0.0000 -0.9949 0.1004
vn -0.0000 0.9949 0.1004
vn -0.9406 0.3395 -0.0000
vn 0.9264 0.2005 0.3188
vn -0.9264 0.2005 0.3188
vn -0.0000 -0.9329 0.3601
vn -0.8865 0.3200 -0.3343
vn 0.9406 0.3395 -0.0000
vn -0.0000 -1.0000 -0.0000
vn -0.0000 -0.0000 -1.0000
vn -0.0000 -0.9693 -0.2459
vn 0.8865 0.3200 -0.3343
vn -0.0000 0.9693 -0.2459
vn -0.0000 0.9999 0.0149
vn -0.0000 -0.9999 0.0149
vn 0.8227 0.2105 0.5281
vn -0.9849 0.1730 0.0055
vn 0.7186 0.6955 0.0015
vn 0.0386 0.6550 0.7546
vn 0.0386 0.6550 -0.7546
vn -0.7137 0.7004 -0.0000
vn -0.0071 -1.0000 -0.0022
vn -0.6931 0.6801 0.2389
vn -0.7186 0.6955 0.0015
vn -0.0139 -0.9836 0.1800
vn 0.7029 0.6711 0.2357
vn -0.0386 0.6550 0.7546
vn -0.0386 0.6550 -0.7546
vn 0.7137 0.7004 -0.0000
vn 0.0071 -1.0000 -0.0022
vn 0.6931 0.6801 0.2389
vn 0.0139 -0.9836 0.1800
vn -0.7029 0.6711 0.2357
vt 0.535345 0.560902
vt 0.431606 0.561935
vt 0.437690 0.444702
vt 0.549476 0.441942
vt 0.313735 0.445130
vt 0.194955 0.445130
vt 0.194955 0.119885
vt 0.313735 0.119885
vt 0.327867 0.560902
vt 0.431606 0.561935
vt 0.410031 0.831392
vt 0.339841 0.830350
vt 0.231153 0.830542
vt 0.277538 0.830542
vt 0.254345 0.971607
vt 0.136734 0.411784
vt 0.058221 0.411784
vt 0.059411 0.141184
vt 0.135544 0.141184
vt 0.230427 0.559976
vt 0.278263 0.559976
vt 0.431606 0.120246
vt 0.543393 0.117486
vt 0.380330 0.972868
vt 0.453181 0.831392
vt 0.523371 0.830350
vt 0.482882 0.972868
vt 0.097478 0.000000
vt 0.442378 0.001743
vt 0.513003 -0.000000
vt 0.425522 0.444702
vt 0.313735 0.441942
vt 0.319819 0.117486
vt 0.431606 0.120246
vt 0.000000 0.526620
vt 0.194955 0.526620
vt 0.194955 0.851821
vt 0.000000 0.851821
vt 0.728428 0.783720
vt 0.661764 0.759657
vt 0.661764 0.684614
vt 0.728428 0.660551
vt 0.159062 0.971613
vt 0.035893 0.971613
vt 0.350209 -0.000000
vt 0.420834 0.001743
vt 0.216824 0.000000
vt 0.291867 0.000000
vt 0.810948 0.002393
vt 0.812311 0.509678
vt 0.748835 0.507315
vt 0.748835 -0.000000
vt 0.564801 0.782662
vt 0.549476 0.720344
vt 0.661764 0.720055
vt 0.611924 0.782662
vt 0.564801 0.660551
vt 0.611924 0.660551
vt 0.596599 0.904756
vt 0.596599 0.782662
vt 0.643722 0.782662
vt 0.643722 0.904756
vt 0.875788 0.002560
vt 0.937894 -0.000000
vt 0.937894 0.507286
vt 0.875788 0.509847
vt 0.549476 0.660551
vt 0.549477 0.152237
vt 0.649156 0.152188
vt 0.649156 0.660551
vt 0.732908 0.783720
vt 0.732908 0.854877
vt 0.661764 0.785059
vt 0.908454 0.661781
vt 0.813674 0.002393
vt 0.875787 -0.000000
vt 0.875787 0.507315
vt 0.812311 0.509678
vt 0.599316 0.000000
vt 0.780053 0.661700
vt 0.845798 0.783810
vt 0.798675 0.783810
vt 0.748835 0.721204
vt 0.861123 0.721493
vt 0.798675 0.661700
vt 0.845798 0.661700
vt 0.596599 0.904756
vt 0.549476 0.904756
vt 0.549476 0.782662
vt 0.596599 0.782662
vt 1.000000 0.002560
vt 1.000000 0.509847
vt 0.937894 -0.000000
vt 0.748835 0.660551
vt 0.649156 0.152188
vt 0.748835 0.152237
vt 0.748835 0.783810
vt 0.819979 0.785150
vt 0.748835 0.854967
vt 0.967334 0.661781
vt 0.698996 0.000000
vt 0.844569 0.661700
s 0
f 18/1/1 19/2/1 4/3/1 3/4/1
f 4/5/2 8/6/2 13/7/2 11/8/2
f 20/9/3 21/10/3 6/11/3 5/12/3
f 6/13/4 2/14/4 9/15/4
f 18/16/5 20/17/5 5/18/5 1/19/5
f 21/20/6 19/21/6 2/14/6 6/13/6
f 3/4/7 4/3/7 11/22/7 12/23/7
f 5/12/8 6/11/8 9/24/8
f 2/25/9 1/26/9 9/27/9
f 1/19/10 5/18/10 9/28/10
f 12/23/11 11/22/11 15/29/11 16/30/11
f 8/31/12 7/32/12 10/33/12 13/34/12
f 7/35/13 3/36/13 12/37/13 10/38/13
f 16/39/14 15/40/14 17/41/14 14/42/14
f 10/38/15 12/37/15 16/43/15 14/44/15
f 13/34/16 10/33/16 14/45/16 17/46/16
f 11/8/17 13/7/17 17/47/17 15/48/17
f 8/6/18 4/5/18 19/21/18 21/20/18
f 3/36/19 7/35/19 20/17/19 18/16/19
f 7/32/20 8/31/20 21/10/20 20/9/20
f 1/26/21 2/25/21 19/2/21 18/1/21
f 28/49/22 31/50/22 30/51/22 29/52/22
f 22/53/23 23/54/23 25/55/23 26/56/23
f 23/54/24 24/57/24 27/58/24 25/55/24
f 24/59/13 22/60/13 26/61/13 27/62/13
f 28/63/25 32/64/25 35/65/25 31/66/25
f 29/67/26 30/68/26 35/69/26 32/70/26
f 28/71/14 29/72/14 32/73/14
f 31/66/27 35/65/27 33/74/27
f 41/75/28 42/76/28 43/77/28 44/78/28
f 35/69/29 30/68/29 33/79/29
f 30/51/30 31/50/30 33/80/30
f 36/81/31 39/82/31 38/83/31 34/84/31
f 34/84/32 38/83/32 40/85/32 37/86/32
f 37/87/13 40/88/13 39/89/13 36/90/13
f 41/91/33 44/92/33 47/65/33 45/93/33
f 42/94/34 45/70/34 47/95/34 43/96/34
f 41/97/14 45/98/14 42/99/14
f 44/92/35 46/100/35 47/65/35
f 47/95/36 46/101/36 43/96/36
f 43/77/37 46/102/37 44/78/37
