# Blender 4.5.4 LTS
# www.blender.org
mtllib rock_01.mtl
o rock.001
v -0.112615 -1.002149 -0.075279
v -0.213023 1.901901 -0.107841
v -1.000000 0.127226 1.000000
v -1.000000 0.127226 -1.000000
v 1.000000 0.127226 -1.000000
v 1.000000 0.127226 1.000000
vn -0.9141 0.4054 -0.0000
vn -0.0000 0.4492 -0.8935
vn 0.8256 0.5643 -0.0000
vn -0.0000 0.5295 0.8483
vn -0.0000 -0.6895 0.7242
vn 0.7124 -0.7018 -0.0000
vn -0.0000 -0.6335 -0.7737
vn -0.7863 -0.6178 -0.0000
vt 0.706963 0.000000
vt 0.978618 0.000000
vt 1.000000 0.240502
vt -0.000000 0.458382
vt 0.376498 0.607551
vt 0.000000 0.837476
vt -0.000000 0.284717
vt 0.336975 -0.000000
vt 0.336975 0.458382
vt 0.336975 0.290202
vt 0.691795 -0.000000
vt 0.691795 0.423675
vt 0.677000 0.662198
vt 0.376498 0.458382
vt 0.642547 0.458382
vt 0.376498 0.837476
vt 0.642547 0.837476
vt 0.691795 0.339747
s 0
f 3/1/1 2/2/1 4/3/1
f 4/4/2 2/5/2 5/6/2
f 5/7/3 2/8/3 6/9/3
f 6/10/4 2/11/4 3/12/4
f 1/13/5 6/14/5 3/15/5
f 1/13/6 5/16/6 6/14/6
f 1/13/7 4/17/7 5/16/7
f 1/18/8 3/1/8 4/3/8
