# Blender 4.5.4 LTS
# www.blender.org
mtllib satelite.mtl
o nav_sattilite
v -0.646809 -1.644210 0.646809
v -0.646809 1.140408 0.646809
v -0.646809 -1.644210 -0.646809
v -0.646809 1.140408 -0.646809
v 0.646809 -1.644210 0.646809
v 0.646809 1.140408 0.646809
v 0.646809 -1.644210 -0.646809
v 0.646809 1.140408 -0.646809
v -1.485735 1.140408 1.485735
v -1.485735 1.140408 -1.485735
v 1.485735 1.140408 1.485735
v 1.485735 1.140408 -1.485735
v 0.000000 3.334112 0.000000
v 1.485735 -1.644210 1.485735
v 1.485735 -1.644210 -1.485735
v -1.485735 -1.644210 1.485735
v -1.485735 -1.644210 -1.485735
v 1.169353 0.393847 1.169353
v 1.169353 -0.897651 1.169353
v 1.169353 0.393847 -1.169353
v 1.169353 -0.897651 -1.169353
v -1.169353 0.393847 -1.169353
v -1.169353 -0.897651 -1.169353
v -1.169353 -0.897651 1.169353
v -1.169353 0.393848 1.169353
v 0.000000 -4.100410 -0.000000
vn -0.0000 1.0000 -0.0000
vn 0.8556 -0.5176 -0.0000
vn -0.0000 -0.5176 0.8556
vn -0.0000 -1.0000 -0.0000
vn -0.0000 0.5608 0.8280
vn -0.0000 0.5608 -0.8280
vn 0.8280 0.5608 -0.0000
vn -0.8280 0.5608 -0.0000
vn -0.0000 -0.5176 -0.8556
vn -0.8556 -0.5176 -0.0000
vn -1.0000 -0.0000 -0.0000
vn -0.0000 -0.0000 -1.0000
vn 1.0000 -0.0000 -0.0000
vn -0.0000 -0.0000 1.0000
vn -0.0000 -0.5734 0.8193
vn -0.0000 0.5734 0.8193
vn 0.8193 -0.5734 -0.0000
vn 0.8193 0.5734 -0.0000
vn -0.0000 -0.5734 -0.8193
vn -0.0000 0.5734 -0.8193
vn -0.8193 -0.5734 -0.0000
vn -0.8193 0.5734 -0.0000
vt 0.000000 0.000000
vt 0.272777 0.000000
vt 0.272777 0.272777
vt 0.000000 0.272777
vt 0.272777 0.272777
vt 0.272777 -0.000000
vt 0.526606 0.136389
vt 0.272777 0.545554
vt 0.272777 0.272777
vt 0.526606 0.409166
vt 0.000000 0.545554
vt 0.000000 0.272777
vt 0.272777 0.272777
vt 0.780435 0.272777
vt 0.780435 -0.000000
vt 0.937767 0.136388
vt 0.986547 0.480997
vt 0.780434 0.302322
vt 0.986547 0.272777
vt 0.206113 1.000000
vt 0.000000 0.821325
vt 0.206113 0.791780
vt 0.412226 1.000000
vt 0.206113 0.821325
vt 0.412226 0.791780
vt 0.526606 0.272777
vt 0.526606 -0.000000
vt 0.780434 0.136389
vt 0.526606 0.545554
vt 0.526606 0.272777
vt 0.780435 0.409166
vt -0.000000 0.598680
vt 0.214690 0.598680
vt 0.214690 0.712879
vt -0.000000 0.712879
vt 0.429380 0.598680
vt 0.644071 0.598680
vt 0.644071 0.712879
vt 0.429380 0.712879
vt 0.214690 0.598680
vt 0.429380 0.712879
vt 0.644071 0.598680
vt 0.858761 0.598680
vt 0.858761 0.712879
vt 0.644071 0.712879
vt 0.692039 0.791780
vt 0.810792 0.791780
vt 0.692039 0.545554
vt 0.810792 0.545554
vt 0.262659 0.791780
vt 0.381412 0.791780
vt 0.262659 0.545554
vt 0.381412 0.545554
vt 0.477349 0.791780
vt 0.596102 0.791780
vt 0.477349 0.545554
vt 0.596102 0.545554
vt 0.047969 0.791780
vt 0.166721 0.791780
vt 0.047969 0.545554
vt 0.166721 0.545554
s 0
f 14/1/1 15/2/1 17/3/1 16/4/1
f 15/5/2 14/6/2 26/7/2
f 14/8/3 16/9/3 26/10/3
f 12/8/4 11/11/4 9/12/4 10/13/4
f 9/14/5 11/15/5 13/16/5
f 12/17/6 10/18/6 13/19/6
f 11/20/7 12/21/7 13/22/7
f 10/23/8 9/24/8 13/25/8
f 17/26/9 15/27/9 26/28/9
f 16/29/10 17/30/10 26/31/10
f 25/32/11 22/33/11 23/34/11 24/35/11
f 22/36/12 20/37/12 21/38/12 23/39/12
f 20/40/13 18/36/13 19/41/13 21/34/13
f 18/42/14 25/43/14 24/44/14 19/45/14
f 5/46/15 19/45/15 24/44/15 1/47/15
f 18/42/16 6/48/16 2/49/16 25/43/16
f 7/50/17 21/34/17 19/41/17 5/51/17
f 20/40/18 8/52/18 6/53/18 18/36/18
f 3/54/19 23/39/19 21/38/19 7/55/19
f 22/36/20 4/56/20 8/57/20 20/37/20
f 1/58/21 24/35/21 23/34/21 3/59/21
f 25/32/22 2/60/22 4/61/22 22/33/22
