# Blender 4.4.3
# www.blender.org
mtllib shippy1.mtl
o Shippy
v 1.000000 0.525058 2.706280
v 1.000000 -0.525058 2.706280
v 1.000000 0.525058 4.706280
v 1.000000 -0.525058 4.706280
v -1.000000 0.525058 2.706280
v -1.000000 -0.525058 2.706280
v -1.000000 0.525058 4.706280
v -1.000000 -0.525058 4.706280
v 0.000000 0.000000 5.638546
v 1.332604 0.699695 1.037208
v 1.332604 -0.699695 1.037208
v -1.332604 0.699695 1.037208
v -1.332604 -0.699695 1.037208
v 1.332600 0.699695 -1.826200
v 1.332600 -0.699695 -1.826200
v -1.332604 0.699695 -1.826200
v -1.332604 -0.699695 -1.826200
v 0.801225 0.420690 -3.059570
v 0.801225 -0.420690 -3.059570
v -0.801225 0.420690 -3.059570
v -0.801225 -0.420690 -3.059570
v 2.006430 0.354390 -2.137380
v 2.006430 -0.354390 -2.137380
v 2.006429 0.354390 1.914781
v 2.006429 -0.354390 1.914781
v 2.939206 0.354390 -2.137379
v 2.939206 -0.354390 -2.137379
v 2.939206 0.354390 1.914781
v 2.939206 -0.354390 1.914781
v 2.219118 0.192776 2.451473
v 2.219118 -0.192776 2.451473
v 2.726517 0.192776 2.451473
v 2.726517 -0.192776 2.451473
v -2.925370 0.354390 -2.137379
v -2.925370 -0.354390 -2.137379
v -2.925370 0.354390 1.914781
v -2.925370 -0.354390 1.914781
v -1.992593 0.354390 -2.137379
v -1.992593 -0.354390 -2.137379
v -1.992593 0.354390 1.914781
v -1.992593 -0.354390 1.914781
v -2.712681 0.192776 2.451473
v -2.712681 -0.192776 2.451473
v -2.205282 0.192776 2.451473
v -2.205282 -0.192776 2.451473
v -2.006430 0.199044 -0.664217
v -2.006430 -0.182711 -1.547309
v -2.006430 -0.182711 0.728596
v 1.332600 0.199044 -0.664216
v -1.332600 0.199044 -0.664216
v -1.332600 -0.182711 -1.547309
v -1.332600 -0.182711 0.728596
v 1.332600 -0.182711 -1.547309
v 1.332600 -0.182711 0.728596
v 2.006430 0.199044 -0.664217
v 2.006430 -0.182711 -1.547309
v 2.006430 -0.182711 0.728596
vn -0.0000 1.0000 -0.0000
vn -0.6819 -0.0000 0.7314
vn -1.0000 -0.0000 -0.0000
vn -0.0000 -1.0000 -0.0000
vn 1.0000 -0.0000 -0.0000
vn 0.9807 -0.0000 0.1954
vn -0.0000 -0.8713 0.4907
vn -0.0000 0.8713 0.4907
vn 0.6819 -0.0000 0.7314
vn -0.9807 -0.0000 0.1954
vn -0.0000 -0.9946 0.1041
vn -0.0000 0.9946 0.1041
vn -0.0000 0.9754 -0.2206
vn -0.0000 -0.0000 -1.0000
vn 0.9184 -0.0000 -0.3957
vn -0.9184 -0.0000 -0.3957
vn -0.0000 -0.9754 -0.2206
vn -0.0000 -0.9575 0.2883
vn -0.0000 -0.0000 1.0000
vn 0.9297 -0.0000 0.3684
vn -0.9297 -0.0000 0.3684
vn -0.0000 0.9575 0.2883
vn -0.0000 0.9644 0.2643
vn -0.0000 0.9179 -0.3968
vt 0.289062 0.234375
vt 0.117188 0.234375
vt 0.117188 0.085938
vt 0.289062 0.085938
vt 0.117188 0.867188
vt 0.117188 0.750000
vt 0.023438 0.812500
vt 0.257812 0.867188
vt 0.257812 0.750000
vt 0.554688 0.234375
vt 0.390625 0.234375
vt 0.390625 0.085938
vt 0.554688 0.085938
vt 0.367188 0.750000
vt 0.367188 0.867188
vt 0.472534 0.000000
vt 0.203125 0.000000
vt 0.023438 0.804688
vt 0.570312 0.867188
vt 0.570312 0.750000
vt 0.585938 0.382812
vt 0.359375 0.382812
vt 0.320312 0.382812
vt 0.085938 0.382812
vt 0.085938 0.625000
vt 0.320312 0.625000
vt 0.289062 0.726562
vt 0.117188 0.726562
vt 0.585938 0.625000
vt 0.359375 0.625000
vt 0.984375 0.031250
vt 0.984375 0.218750
vt 0.656250 0.218750
vt 0.656250 0.031250
vt 0.656250 0.765625
vt 0.656250 0.851562
vt 0.554688 0.726562
vt 0.390625 0.726562
vt 0.656250 0.601562
vt 0.656250 0.234375
vt 0.718750 0.234375
vt 0.718750 0.601562
vt 0.867188 0.601562
vt 0.812500 0.601562
vt 0.812500 0.234375
vt 0.867188 0.234375
vt 0.968750 0.601562
vt 0.968750 0.687500
vt 0.867188 0.687500
vt 0.968750 0.234375
vt 0.695312 0.640625
vt 0.695312 0.750000
vt 0.781250 0.750000
vt 0.781250 0.640625
vt 0.890625 0.828125
vt 0.812500 0.828125
vt 0.812500 0.734375
vt 0.890625 0.734375
vt 0.695312 0.851562
vt 0.781250 0.851562
vt 0.218750 0.890625
vt 0.437500 0.890625
vt 0.437500 0.984375
vt 0.218750 0.984375
vt 0.070312 0.890625
vt 0.070312 0.984375
vt 0.789062 0.890625
vt 0.789062 0.984375
s 0
usemtl Material
f 1/1/1 5/2/1 7/3/1 3/4/1
f 7/5/2 8/6/2 9/7/2
f 8/6/3 7/5/3 5/8/3 6/9/3
f 6/10/4 2/11/4 4/12/4 8/13/4
f 2/9/5 1/8/5 3/5/5 4/6/5
f 1/8/6 2/9/6 11/14/6 10/15/6
f 8/13/7 4/12/7 9/16/7
f 3/4/8 7/3/8 9/17/8
f 4/6/9 3/5/9 9/18/9
f 13/14/3 12/15/3 16/19/3 17/20/3
f 6/9/10 5/8/10 12/15/10 13/14/10
f 2/11/11 6/10/11 13/21/11 11/22/11
f 5/2/12 1/1/12 10/23/12 12/24/12
f 16/25/13 14/26/13 18/27/13 20/28/13
f 11/22/4 13/21/4 17/29/4 15/30/4
f 12/24/1 10/23/1 14/26/1 16/25/1
f 10/15/5 11/14/5 15/20/5 14/19/5
f 21/31/14 20/32/14 18/33/14 19/34/14
f 14/19/15 15/20/15 19/35/15 18/36/15
f 17/20/16 16/19/16 20/36/16 21/35/16
f 15/30/17 17/29/17 21/37/17 19/38/17
f 23/39/3 25/40/3 24/41/3 22/42/3
f 27/43/5 26/44/5 28/45/5 29/46/5
f 22/42/1 24/41/1 28/45/1 26/44/1
f 23/47/14 22/48/14 26/49/14 27/43/14
f 25/50/4 23/47/4 27/43/4 29/46/4
f 25/51/18 29/52/18 33/53/18 31/54/18
f 30/55/19 31/56/19 33/57/19 32/58/19
f 29/52/20 28/59/20 32/60/20 33/53/20
f 24/52/21 25/51/21 31/54/21 30/53/21
f 28/59/22 24/52/22 30/53/22 32/60/22
f 35/43/3 37/46/3 36/45/3 34/44/3
f 39/39/5 38/42/5 40/41/5 41/40/5
f 34/44/1 36/45/1 40/41/1 38/42/1
f 35/43/14 34/49/14 38/48/14 39/47/14
f 37/46/4 35/43/4 39/47/4 41/50/4
f 37/52/18 41/59/18 45/60/18 43/53/18
f 42/55/19 43/56/19 45/57/19 44/58/19
f 41/51/20 40/52/20 44/53/20 45/54/20
f 36/51/21 37/52/21 43/53/21 42/54/21
f 40/52/22 36/59/22 42/60/22 44/53/22
f 46/61/23 48/62/23 52/63/23 50/64/23
f 47/65/24 46/61/24 50/64/24 51/66/24
f 48/62/4 47/67/4 51/68/4 52/63/4
f 49/61/23 54/62/23 57/63/23 55/64/23
f 53/65/24 49/61/24 55/64/24 56/66/24
f 54/62/4 53/67/4 56/68/4 57/63/4
